<?xml version="1.0" encoding="UTF-8" standalone="no"?>
<!-- Generator: Adobe Illustrator 16.2.1, SVG Export Plug-In . SVG Version: 6.00 Build 0)  -->

<svg
   xmlns:dc="http://purl.org/dc/elements/1.1/"
   xmlns:cc="http://creativecommons.org/ns#"
   xmlns:rdf="http://www.w3.org/1999/02/22-rdf-syntax-ns#"
   xmlns:svg="http://www.w3.org/2000/svg"
   xmlns="http://www.w3.org/2000/svg"
   xmlns:sodipodi="http://sodipodi.sourceforge.net/DTD/sodipodi-0.dtd"
   xmlns:inkscape="http://www.inkscape.org/namespaces/inkscape"
   version="1.1"
   id="Layer_1"
   x="0px"
   y="0px"
   width="512px"
   height="512px"
   viewBox="0 0 512 512"
   enable-background="new 0 0 512 512"
   xml:space="preserve"
   inkscape:version="0.48.4 r9939"
   sodipodi:docname="android-train.svg"><metadata
     id="metadata3000"><rdf:RDF><cc:Work
         rdf:about=""><dc:format>image/svg+xml</dc:format><dc:type
           rdf:resource="http://purl.org/dc/dcmitype/StillImage" /></cc:Work></rdf:RDF></metadata><defs
     id="defs2998" /><sodipodi:namedview
     pagecolor="#ffffff"
     bordercolor="#666666"
     borderopacity="1"
     objecttolerance="10"
     gridtolerance="10"
     guidetolerance="10"
     inkscape:pageopacity="0"
     inkscape:pageshadow="2"
     inkscape:window-width="1920"
     inkscape:window-height="1176"
     id="namedview2996"
     showgrid="false"
     inkscape:zoom="0.4609375"
     inkscape:cx="-143.18644"
     inkscape:cy="256"
     inkscape:window-x="0"
     inkscape:window-y="24"
     inkscape:window-maximized="1"
     inkscape:current-layer="Layer_1" /><g
     id="Icon_35_"
     style="fill:#444444;fill-opacity:1"><g
       id="g2990"
       style="fill:#444444;fill-opacity:1"><g
         id="g2992"
         style="fill:#444444;fill-opacity:1"><path
           d="M80,346.666c0,41.604,33.062,74.666,74.667,74.666L128,448v16h256v-16l-26.667-26.668     c41.604,0,74.667-33.062,74.667-74.666V133.334C432,58.668,349.864,48,256,48S80,58.668,80,133.334V346.666z M256,376     c-22.002,0-40-17.997-40-39.999S233.998,296,256,296s40,17.999,40,40.001S278.002,376,256,376z M384,224H128v-96h256V224z"
           id="path2994"
           style="fill:#444444;fill-opacity:1" /></g></g></g></svg>