<?xml version="1.0" encoding="UTF-8" standalone="no"?>
<!-- Generator: Adobe Illustrator 16.2.1, SVG Export Plug-In . SVG Version: 6.00 Build 0)  -->

<svg
   xmlns:dc="http://purl.org/dc/elements/1.1/"
   xmlns:cc="http://creativecommons.org/ns#"
   xmlns:rdf="http://www.w3.org/1999/02/22-rdf-syntax-ns#"
   xmlns:svg="http://www.w3.org/2000/svg"
   xmlns="http://www.w3.org/2000/svg"
   xmlns:sodipodi="http://sodipodi.sourceforge.net/DTD/sodipodi-0.dtd"
   xmlns:inkscape="http://www.inkscape.org/namespaces/inkscape"
   version="1.1"
   id="Layer_1"
   x="0px"
   y="0px"
   width="512px"
   height="512px"
   viewBox="0 0 512 512"
   style="enable-background:new 0 0 512 512;"
   xml:space="preserve"
   inkscape:version="0.48.4 r9939"
   sodipodi:docname="iphone.svg"><metadata
     id="metadata3020"><rdf:RDF><cc:Work
         rdf:about=""><dc:format>image/svg+xml</dc:format><dc:type
           rdf:resource="http://purl.org/dc/dcmitype/StillImage" /></cc:Work></rdf:RDF></metadata><defs
     id="defs3018" /><sodipodi:namedview
     pagecolor="#ffffff"
     bordercolor="#666666"
     borderopacity="1"
     objecttolerance="10"
     gridtolerance="10"
     guidetolerance="10"
     inkscape:pageopacity="0"
     inkscape:pageshadow="2"
     inkscape:window-width="1920"
     inkscape:window-height="1176"
     id="namedview3016"
     showgrid="false"
     inkscape:zoom="0.4609375"
     inkscape:cx="-143.18644"
     inkscape:cy="256"
     inkscape:window-x="0"
     inkscape:window-y="24"
     inkscape:window-maximized="1"
     inkscape:current-layer="Layer_1" /><g
     id="g3012"
     style="fill:#444444;fill-opacity:1"><path
       d="M328.2,64H183.8C170.7,64,160,74.7,160,87.9v336.3c0,13.1,10.7,23.8,23.8,23.8h144.3c13.1,0,23.8-10.7,23.8-23.8V87.9   C352,74.7,341.3,64,328.2,64z M240,99.9c0-2.1,1.7-3.9,3.9-3.9h24.3c2.1,0,3.9,1.7,3.9,3.9v0.3c0,2.1-1.7,3.9-3.9,3.9h-24.3   c-2.1,0-3.9-1.7-3.9-3.9V99.9z M228,96c2.2,0,4,1.8,4,4c0,2.2-1.8,4-4,4s-4-1.8-4-4C224,97.8,225.8,96,228,96z M256,432.1   c-8.9,0-16.1-7.2-16.1-16.1c0-8.9,7.2-16.1,16.1-16.1c8.9,0,16.1,7.2,16.1,16.1C272.1,424.9,264.8,432.1,256,432.1z M336,384H176   V128h160V384z"
       id="path3014"
       style="fill:#444444;fill-opacity:1" /></g></svg>